<svg fill="none" height="318" viewBox="0 0 318 318" width="318" xmlns="http://www.w3.org/2000/svg">
    <circle cx="159" cy="159" fill="#FA4616" opacity="0.25" r="159" />
    <path d="M290.377 69.2887L245.815 111.41C249.376 118.304 252.181 125.737 254.339 133.817C269.337 190.266 238.154 241.436 184.529 255.656C130.904 269.876 78.466 240.79 63.4682 184.341C48.3626 127.461 79.545 76.2909 133.17 62.1787C140.507 60.2396 147.844 59.1624 155.073 58.8392L151.081 129.077L258.008 34.1698L253.692 30.8302C225.746 9.60807 191.435 -0.518238 156.908 0.0203959C144.176 0.343576 131.12 2.17493 118.172 5.62219C32.8253 28.1371 -17.347 113.133 5.52726 199.638C28.2936 285.604 114.18 335.158 199.527 312.536C284.874 290.021 335.37 204.378 312.496 118.412C307.64 100.314 300.088 83.8318 290.269 69.2887H290.377Z"
        fill="white"
        opacity="0.4" />
    <mask style="mask-type:alpha" height="318" id="mask0_52820_30860" maskUnits="userSpaceOnUse" width="318"
        x="0" y="0">
        <circle cx="159" cy="159" fill="#FA4616" r="159" />
    </mask>
    <g mask="url(#mask0_52820_30860)">
        <path
            d="M41.959 202.369C41.959 196.271 46.9025 191.327 53.0007 191.327C59.0988 191.327 64.0423 196.271 64.0423 202.369V324.995H41.959V202.369Z"
            fill="#0F5EA6" />
        <path
            d="M77.2924 140.242C77.2924 134.144 82.2359 129.2 88.334 129.2C94.4322 129.2 99.3757 134.144 99.3757 140.242V324.995H77.2924V140.242Z"
            fill="#002E5D" />
        <path
            d="M112.626 103.057C112.626 96.9592 117.569 92.0156 123.667 92.0156C129.765 92.0156 134.709 96.9591 134.709 103.057V324.995H112.626V103.057Z"
            fill="#0F5EA6" />
        <path
            d="M147.959 168.203C147.959 162.105 152.903 157.161 159.001 157.161C165.099 157.161 170.043 162.105 170.043 168.203V324.994H147.959V168.203Z"
            fill="#002E5D" />
        <path
            d="M183.292 53.3698C183.292 47.2716 188.236 42.3281 194.334 42.3281C200.432 42.3281 205.376 47.2716 205.376 53.3698V324.995H183.292V53.3698Z"
            fill="#FA4616" />
        <path
            d="M218.626 168.481C218.626 162.383 223.569 157.439 229.667 157.439C235.765 157.439 240.709 162.383 240.709 168.481V324.995H218.626V168.481Z"
            fill="#002E5D" />
        <path
            d="M253.959 130.829C253.959 124.731 258.903 119.787 265.001 119.787C271.099 119.787 276.042 124.731 276.042 130.829V324.995H253.959V130.829Z"
            fill="#0F5EA6" />
    </g>
</svg>
