<svg width="318" height="318" viewBox="0 0 318 318" fill="none" xmlns="http://www.w3.org/2000/svg">
<path opacity="0.4" d="M290.377 69.2887L245.815 111.41C249.376 118.304 252.181 125.737 254.339 133.817C269.337 190.266 238.154 241.436 184.529 255.656C130.904 269.876 78.466 240.79 63.4682 184.341C48.3626 127.461 79.545 76.2909 133.17 62.1787C140.507 60.2396 147.844 59.1624 155.073 58.8392L151.081 129.077L258.008 34.1698L253.692 30.8302C225.746 9.60807 191.435 -0.518238 156.908 0.0203959C144.176 0.343576 131.12 2.17493 118.172 5.62219C32.8253 28.1371 -17.347 113.133 5.52726 199.638C28.2936 285.604 114.18 335.158 199.527 312.536C284.874 290.021 335.37 204.378 312.496 118.412C307.64 100.314 300.088 83.8318 290.269 69.2887H290.377Z" fill="white"/>
</svg>
