<svg xmlns="http://www.w3.org/2000/svg" width="102" height="90" fill="none"><path fill="#00000" d="M31.204 84.575c-.855.168-1.878.537-1.979 1.409-.117.972 1.074 1.542 2.03 1.744 3.605.788 7.328.888 11.034.989 19.586.47 39.172.553 58.759.235-.285-2.398-3.136-3.438-5.5-3.89-10.163-1.946-20.677-.84-30.654-2.902-10.515-2.197-23.31.285-33.69 2.415Z"/><path fill="#009EB5" d="M31.204 84.575c-.855.168-1.878.537-1.979 1.409-.117.972 1.074 1.542 2.03 1.744 3.605.788 7.328.888 11.034.989 19.586.47 39.172.553 58.759.235-.285-2.398-3.136-3.438-5.5-3.89-10.163-1.946-20.677-.84-30.654-2.902-10.515-2.197-23.31.285-33.69 2.415Z"/><path fill="#DDC199" d="M84.544 68.778c.218-.067.453 0 .67.067.957.319 1.896.738 2.734 1.291.42.268.839.57 1.04 1.023.184.42.168.889.134 1.325-.302 5.4-.587 10.816-.889 16.216-.016.352-.067.737-.335.956-.335.251-.805.083-1.174-.084-3.605-1.577-7.194-3.17-10.8-4.746-1.726-.755-3.504-1.56-4.779-2.951.973-2.147 3.02-3.572 4.897-5.014a51.3 51.3 0 0 0 7.966-7.647c.134-.168.301-.37.536-.436Z"/><path fill="#BDB39B" d="M101.532 40.955c-.889-.2-1.794-.402-2.683-.603A261.747 261.747 0 0 0 84.998 70.1c.922.587 2.146 1.19 3.035.554.369-.269.587-.705.788-1.124a505.37 505.37 0 0 0 12.711-28.575Z"/><g fill="#272525" opacity=".26"><path d="M85.045 87.708c-.017.185.268.252.302.067a146.27 146.27 0 0 1 3.068-16.132c.084-.335-.436-.436-.52-.1a103.235 103.235 0 0 0-2.85 16.165ZM79.365 85.304a266.426 266.426 0 0 1 7.043-13.784c.151-.268-.285-.486-.436-.218-2.582 4.561-4.913 9.257-7.043 14.036.034.034.05.067.067.1a.76.76 0 0 1 .37-.134ZM75.756 82.239a71.47 71.47 0 0 0 9.894-11.555c.185-.285-.285-.52-.47-.234a71.781 71.781 0 0 1-9.725 11.52c-.185.185.117.453.301.269Z" opacity=".26"/></g><path fill="#2F3F47" d="M50.052 73.56c.017-.252.05-.52.067-.772-2.213-1.51-6.104-1.023-8.451-.252-2.516.822-2.516 2.365-2.482 4.98.017 1.477.15 3.137 1.291 4.093.872.737 2.096.838 3.237.905 1.022.067 2.029.117 3.052.184.704.034 1.492.05 2.045-.402.554-.47.638-1.258.705-1.979.184-2.263.369-4.51.536-6.758ZM52.755 73.56c-.017-.252-.05-.52-.068-.772 2.214-1.51 6.105-1.023 8.452-.252 2.516.822 2.516 2.365 2.482 4.98-.017 1.477-.15 3.137-1.291 4.093-.872.737-2.096.838-3.237.905-1.023.067-2.029.117-3.052.184-.704.034-1.492.05-2.045-.402-.554-.47-.638-1.258-.705-1.979-.167-2.263-.352-4.51-.536-6.758Z"/><path fill="#516770" d="M33.869 67.957a8.962 8.962 0 0 0-1.61.504c-.386.15-.772.352-1.04.654-.369.436-.47 1.04-.537 1.626a17.813 17.813 0 0 0-.1 2.314c0 .654.05 1.325.386 1.879.47.771 1.391 1.123 2.263 1.341 1.66.42 3.388.52 5.098.604 10.347.503 20.727.167 31.023-.99.42-.05.89-.117 1.174-.436.168-.184.252-.436.336-.67.536-1.71.888-4.042-.269-5.635-.99-1.358-2.817-.587-4.192-.604-1.409-.016-2.834-.134-4.243-.184-2.75-.117-5.5-.235-8.25-.319-3.874-.134-7.764-.251-11.638-.352-2.616-.05-5.702-.335-8.401.269Z"/><path fill="#1360A8" d="M56.105 31.15c7.027.033 14.036.184 21.062.335-.167-3.74-.436-7.48-1.24-11.135-1.392-6.406-4.579-12.661-9.961-16.4-8.25-5.736-21.348-4.981-30.235.687-3.74 2.381-6.742 5.651-8.318 9.659-1.81 4.578-2.297 9.575-2.582 14.489l-.101 1.945c10.43-.403 20.928.386 31.375.42ZM55.542 33.028c-10.296-.017-20.626-.755-30.922-.386a192.772 192.772 0 0 0 1.409 33.488c.2 1.526.452 3.12 1.459 4.327 1.56 1.861 4.259 1.04 6.355 1.04 3.538 0 7.177.15 10.75.234 6.74.151 13.431.168 20.139-.587 3.186-.352 9.626.62 11.151-2.247 1.258-2.33.738-7.06.923-9.659.218-3.085.386-6.154.486-9.24.185-5.55.151-11.1-.067-16.668-7.21-.134-14.455-.302-21.683-.302Z"/><path fill="#2F3F47" d="M79.858 51.101c.134-.117.151-.318.168-.486.352-4.645.654-9.29.872-13.935.017-.403.017-.872-.302-1.14-.235-.185-.537-.202-.838-.202-1.04-.017-2.063-.033-3.103-.033a107.432 107.432 0 0 0-.788 15.914c1.157 0 2.297.017 3.455.017.184 0 .385 0 .536-.135ZM85.202 61.801c.135-.385.285-.788.587-1.073.235-.218.554-.352.855-.453a23.91 23.91 0 0 1 4.008-1.056 13.732 13.732 0 0 1 2.835 2.566c.15.184.301.385.335.62.033.184-.017.369-.067.553-.537 2.063-1.057 4.126-1.593 6.188-.788.1-1.577.118-2.348.017.302-1.258.604-2.516.889-3.756.285-1.191.503-2.65-.403-3.488-.922.234-1.828.486-2.75.72-.15.034-.319.085-.453.185-.15.134-.218.336-.285.52a24.044 24.044 0 0 0-.872 3.605c-.587-.167-1.174-.318-1.76-.486-.05-1.593.486-3.152 1.022-4.662Z"/><path fill="#516770" d="M92.33 59.992c.05-.05.068-.118.084-.168.168-.755.336-1.51.52-2.247a25.906 25.906 0 0 0-3.572-.554 9.306 9.306 0 0 0-.352 1.929c-.017.134-.017.302.084.402.067.068.151.084.235.118.889.268 1.811.47 2.75.587.067-.017.168 0 .252-.067Z"/><path fill="#1360A8" d="M93.506 57.057c.704-1.19.134-4.327.134-5.585-.017-1.727-.017-3.47-.42-5.148-.402-1.676-1.224-3.32-2.582-4.376-.771-.604-1.677-.99-2.616-1.308a19.811 19.811 0 0 0-8.737-.923c-.234.034-.486.067-.654.235-.184.168-.218.436-.251.688-.134.956-.319 2.012-.268 2.985.083 1.71-.269 1.24.972 1.727.956.369 2.75.067 3.84.319 1.275.285 2.516.72 3.757 1.157.788.268 1.626.603 2.029 1.324.218.386.285.856.335 1.308a68.5 68.5 0 0 1 .42 8.083c0 .47 3.454.235 3.906-.285.05-.067.084-.134.135-.201Z"/><g fill="#272525" opacity=".15"><path d="M87.637 41.412c-.1 1.61-.52 3.069-1.157 4.545-.117.285.235.503.42.251 1.005-1.408 1.525-3.085 1.71-4.796.067-.603-.923-.62-.973 0ZM90.205 42.566c-.285 1.56-.99 2.583-2.096 3.69-.151.15.05.402.218.285.754-.47 1.459-.772 1.995-1.526.503-.705.839-1.46.94-2.315.067-.586-.94-.72-1.057-.134Z" opacity=".15"/></g><path fill="#2F3F47" d="M22.974 35.439c-.135.117-.151.318-.168.486-.352 4.645-.654 9.29-.872 13.935-.017.403-.017.872.302 1.14.235.185.536.202.838.202 1.04.017 2.063.034 3.102.034.655-5.283.923-10.599.789-15.915-1.157 0-2.298-.016-3.455-.016-.184 0-.402 0-.536.134ZM9.975 29.724c.05.403.101.839-.05 1.208-.117.302-.335.553-.57.788a24.272 24.272 0 0 1-3.12 2.733 13.163 13.163 0 0 1-3.672-1.04c-.218-.1-.452-.2-.587-.402-.1-.15-.15-.335-.184-.52-.436-2.08-.889-4.175-1.325-6.255a9.896 9.896 0 0 1 2.096-1.073c.286 1.258.587 2.515.872 3.773.285 1.19.738 2.6 1.912 2.935.721-.62 1.426-1.241 2.147-1.862.117-.1.251-.218.318-.368.084-.185.05-.403.017-.604a24.582 24.582 0 0 0-.822-3.622c.604-.118 1.19-.235 1.795-.352.77 1.425.972 3.068 1.173 4.661Z"/><path fill="#516770" d="M4.403 34.507c-.016.068 0 .135 0 .185.185.755.37 1.492.537 2.247a27.53 27.53 0 0 0 3.455-1.09 8.27 8.27 0 0 0-.537-1.878c-.05-.134-.117-.268-.252-.319-.083-.033-.167-.017-.268 0-.922.151-1.828.386-2.717.688-.083.033-.184.084-.218.167Z"/><path fill="#1360A8" d="M4.659 37.655c-.117 1.375 1.794 3.924 2.364 5.064.772 1.543 1.56 3.103 2.667 4.428 1.107 1.324 2.565 2.43 4.26 2.766.955.202 1.944.151 2.917.017a19.622 19.622 0 0 0 8.234-3.052c.2-.134.402-.268.486-.503.084-.235 0-.486-.067-.738-.319-.922-.604-1.945-1.09-2.8-.839-1.493-.302-1.225-1.643-1.124-1.023.084-2.5 1.157-3.59 1.426-1.274.318-2.582.47-3.873.637-.822.1-1.727.184-2.415-.285-.369-.252-.637-.638-.872-1.023a69.296 69.296 0 0 1-3.974-7.06c-.201-.42-3.186 1.325-3.37 1.995-.017.101-.034.168-.034.252Z"/><g fill="#272525" opacity=".15"><path d="M16.85 49.054c-.621-1.492-.89-2.985-.99-4.595-.017-.318-.436-.352-.486-.033-.269 1.71 0 3.438.603 5.047.218.587 1.124.151.872-.419ZM14.05 49.174c-.436-1.526-.268-2.75.235-4.243.067-.201-.218-.335-.335-.168-.453.755-.956 1.342-1.107 2.248-.134.855-.1 1.676.201 2.481.201.587 1.157.252 1.006-.318Z" opacity=".15"/></g><path fill="#fff" d="M29.411 20.183c.017.637.05 1.29.319 1.878.687 1.459 2.498 1.928 4.091 2.197 9.106 1.526 18.413 2.045 27.57.888 1.207-.15 2.414-.335 3.52-.838 1.108-.503 2.097-1.358 2.5-2.482.25-.721.268-1.492.284-2.264.017-.771.017-1.56.034-2.33 0-.353 0-.705-.134-1.04-.151-.353-.453-.638-.772-.856-1.207-.821-2.733-1.006-4.192-1.157-9.692-.972-19.502-1.828-29.145-.52-.402.05-.822.118-1.107.403-.15.134-.251.318-.402.453-.285.218-.67.2-1.006.318-.94.302-1.275 1.46-1.392 2.449a18.592 18.592 0 0 0-.168 2.9Z"/><path fill="#1360A8" d="M41.55 21.594c.32-.587.37-1.274.303-1.945-.034-.402-.135-.821-.386-1.123-.537-.637-1.526-.57-2.348-.721a3.055 3.055 0 0 0-1.626 1.61 2.769 2.769 0 0 0-.218 1.375c.117.955.905 1.777 1.844 1.945a2.274 2.274 0 0 0 2.432-1.14ZM57.518 21.594c.318-.587.368-1.274.301-1.945-.033-.402-.134-.821-.385-1.123-.537-.637-1.526-.57-2.348-.721a3.055 3.055 0 0 0-1.627 1.61 2.769 2.769 0 0 0-.218 1.375c.118.955.906 1.777 1.845 1.945.94.201 1.962-.285 2.432-1.14Z" opacity=".2"/><defs><linearGradient id="a" x1="29.228" x2="101.067" y1="85.22" y2="85.22" gradientUnits="userSpaceOnUse"><stop stop-color="#4D4D4D"/><stop offset="1"/></linearGradient></defs></svg>