<svg width="28" height="24" viewBox="0 0 28 24" fill="none" xmlns="http://www.w3.org/2000/svg">
<path d="M8.66637 20.0004H12.4664V18.8668H9.79997V17.2668H12.4664V13.4668H8.66637V14.6004H11.3336V16.134H8.66637V20.0004ZM18.2 20.0004H19.3336V13.4668H18.2V16.134H16.6664V13.4668H15.5336V17.2668H18.2V20.0004ZM25.6664 10.634V21.5668C25.6664 22.1449 25.4608 22.6393 25.0496 23.05C24.6389 23.4612 24.1557 23.6668 23.6 23.6668H4.39997C3.82237 23.6668 3.33357 23.4612 2.93357 23.05C2.53357 22.6393 2.33357 22.1449 2.33357 21.5668V10.6004C1.73357 10.1113 1.31677 9.50572 1.08317 8.78358C0.850108 8.06145 0.855707 7.31158 1.09997 6.53398L2.46637 2.16678C2.64451 1.58918 2.94451 1.13932 3.36637 0.817184C3.78877 0.495051 4.28877 0.333984 4.86637 0.333984H23.0336C23.6336 0.333984 24.1501 0.489451 24.5832 0.800385C25.0168 1.11132 25.3224 1.55585 25.5 2.13398L26.9 6.53398C27.1442 7.31158 27.1498 8.06705 26.9168 8.80038C26.6832 9.53372 26.2664 10.1449 25.6664 10.634ZM16.9664 9.83398C17.7221 9.83398 18.3168 9.60625 18.7504 9.15078C19.1834 8.69478 19.3554 8.18918 19.2664 7.63398L18.4 2.00038H14.8336V7.56678C14.8336 8.16678 15.0389 8.69478 15.4496 9.15078C15.8608 9.60625 16.3664 9.83398 16.9664 9.83398ZM10.8664 9.83398C11.533 9.83398 12.0832 9.61158 12.5168 9.16679C12.9498 8.72252 13.1664 8.18918 13.1664 7.56678V2.00038H9.59997L8.73357 7.70038C8.66691 8.18945 8.83357 8.66732 9.23357 9.13398C9.63357 9.60065 10.1778 9.83398 10.8664 9.83398ZM4.86637 9.83398C5.42211 9.83398 5.89997 9.63932 6.29997 9.24998C6.69997 8.86119 6.94451 8.38918 7.03357 7.83398L7.86637 2.00038H4.66637C4.53304 2.00038 4.42211 2.03372 4.33357 2.10038C4.24451 2.16705 4.17784 2.26705 4.13357 2.40038L2.76637 6.93398C2.54451 7.62252 2.63357 8.27798 3.03357 8.90038C3.43357 9.52278 4.04451 9.83398 4.86637 9.83398ZM23.1336 9.83398C23.8888 9.83398 24.4888 9.53398 24.9336 8.93398C25.3778 8.33398 25.4778 7.66732 25.2336 6.93398L23.8336 2.36678C23.7888 2.23345 23.7221 2.13905 23.6336 2.08358C23.5445 2.02812 23.4333 2.00038 23.3 2.00038H20.1336L21 7.83398C21.0666 8.38918 21.3 8.86119 21.7 9.24998C22.1 9.63932 22.5778 9.83398 23.1336 9.83398ZM4.39997 22.0004H23.6C23.7109 22.0004 23.8053 21.9615 23.8832 21.8836C23.961 21.8057 24 21.7001 24 21.5668V11.4004C23.9109 11.4447 23.7888 11.4724 23.6336 11.4836C23.4778 11.4948 23.3112 11.5004 23.1336 11.5004C22.5554 11.5004 22.0277 11.3839 21.5504 11.1508C21.0725 10.9172 20.6112 10.5449 20.1664 10.034C19.8112 10.4783 19.3722 10.8337 18.8496 11.1004C18.3274 11.3671 17.7221 11.5004 17.0336 11.5004C16.4336 11.5004 15.8946 11.3892 15.4168 11.1668C14.9389 10.9449 14.4666 10.6007 14 10.134C13.6 10.5783 13.1389 10.9172 12.6168 11.1508C12.0946 11.3839 11.5557 11.5004 11 11.5004C10.3557 11.5004 9.77224 11.3892 9.24957 11.1668C8.72744 10.9449 8.26637 10.5673 7.86637 10.034C7.28877 10.6116 6.74451 11.0004 6.23357 11.2004C5.72211 11.4004 5.26637 11.5004 4.86637 11.5004C4.68877 11.5004 4.52771 11.4948 4.38317 11.4836C4.23864 11.4724 4.11091 11.4447 3.99997 11.4004V21.5668C3.99997 21.7001 4.03891 21.8057 4.11677 21.8836C4.19464 21.9615 4.28904 22.0004 4.39997 22.0004Z" fill="#002B59"/>
</svg>
