<svg width="34" height="42" viewBox="0 0 34 42" fill="none" xmlns="http://www.w3.org/2000/svg">
<path d="M15.6905 20.1098H18.3104V8.95266H15.6905V20.1098ZM17.0004 26.9185C17.3843 26.9185 17.7161 26.7789 17.9961 26.4999C18.2752 26.2208 18.4147 25.8889 18.4147 25.5042C18.4147 25.0852 18.2752 24.7361 17.9961 24.457C17.7161 24.1779 17.3843 24.0384 17.0004 24.0384C16.6166 24.0384 16.2847 24.1779 16.0048 24.457C15.7257 24.7361 15.5861 25.0852 15.5861 25.5042C15.5861 25.8889 15.7257 26.2208 16.0048 26.4999C16.2847 26.7789 16.6166 26.9185 17.0004 26.9185ZM17.0004 38.0241C21.5052 34.0079 24.9011 30.1929 27.1883 26.5791C29.4755 22.9644 30.619 19.8475 30.619 17.2284C30.619 13.1075 29.3011 9.73754 26.6653 7.11849C24.0287 4.49944 20.807 3.18992 17.0004 3.18992C13.1938 3.18992 9.97215 4.49944 7.3355 7.11849C4.69969 9.73754 3.38179 13.1075 3.38179 17.2284C3.38179 19.8475 4.54297 22.9644 6.86533 26.5791C9.18685 30.1929 12.5652 34.0079 17.0004 38.0241ZM17.0004 41.5328C11.5528 36.7841 7.48468 32.3841 4.79607 28.3328C2.10663 24.2823 0.761902 20.5808 0.761902 17.2284C0.761902 12.1647 2.39451 8.12253 5.65973 5.10203C8.92495 2.08154 12.7052 0.571289 17.0004 0.571289C21.2957 0.571289 25.0759 2.08154 28.3411 5.10203C31.6063 8.12253 33.2389 12.1647 33.2389 17.2284C33.2389 20.5808 31.8942 24.2823 29.2048 28.3328C26.5161 32.3841 22.448 36.7841 17.0004 41.5328Z" fill="#002B59"/>
</svg>
