<svg width="34" height="30" viewBox="0 0 34 30" fill="none" xmlns="http://www.w3.org/2000/svg">
<path d="M10.333 25H15.083V23.583H11.75V21.583H15.083V16.833H10.333V18.25H13.667V20.167H10.333V25ZM22.25 25H23.667V16.833H22.25V20.167H20.333V16.833H18.917V21.583H22.25V25ZM31.583 13.292V26.958C31.583 27.6807 31.326 28.2987 30.812 28.812C30.2987 29.326 29.6947 29.583 29 29.583H5C4.278 29.583 3.667 29.326 3.167 28.812C2.667 28.2987 2.417 27.6807 2.417 26.958V13.25C1.667 12.6387 1.146 11.8817 0.853998 10.979C0.562665 10.0763 0.569665 9.13899 0.874998 8.16699L2.583 2.70799C2.80567 1.98599 3.18067 1.42366 3.708 1.02099C4.236 0.618326 4.861 0.416992 5.583 0.416992H28.292C29.042 0.416992 29.6877 0.611326 30.229 0.999992C30.771 1.38866 31.153 1.94433 31.375 2.66699L33.125 8.16699C33.4303 9.13899 33.4373 10.0833 33.146 11C32.854 11.9167 32.333 12.6807 31.583 13.292ZM20.708 12.292C21.6527 12.292 22.396 12.0073 22.938 11.438C23.4793 10.868 23.6943 10.236 23.583 9.54199L22.5 2.49999H18.042V9.45799C18.042 10.208 18.2987 10.868 18.812 11.438C19.326 12.0073 19.958 12.292 20.708 12.292ZM13.083 12.292C13.9163 12.292 14.604 12.014 15.146 11.458C15.6873 10.9027 15.958 10.236 15.958 9.45799V2.49999H11.5L10.417 9.62499C10.3337 10.2363 10.542 10.8337 11.042 11.417C11.542 12.0003 12.2223 12.292 13.083 12.292ZM5.583 12.292C6.27767 12.292 6.875 12.0487 7.375 11.562C7.875 11.076 8.18066 10.486 8.292 9.79199L9.333 2.49999H5.333C5.16633 2.49999 5.02766 2.54166 4.917 2.62499C4.80566 2.70833 4.72233 2.83333 4.667 2.99999L2.958 8.66699C2.68067 9.52766 2.792 10.347 3.292 11.125C3.792 11.903 4.55567 12.292 5.583 12.292ZM28.417 12.292C29.361 12.292 30.111 11.917 30.667 11.167C31.2223 10.417 31.3473 9.58366 31.042 8.66699L29.292 2.95799C29.236 2.79133 29.1527 2.67333 29.042 2.60399C28.9307 2.53466 28.7917 2.49999 28.625 2.49999H24.667L25.75 9.79199C25.8333 10.486 26.125 11.076 26.625 11.562C27.125 12.0487 27.7223 12.292 28.417 12.292ZM5 27.5H29C29.1387 27.5 29.2567 27.4513 29.354 27.354C29.4513 27.2567 29.5 27.1247 29.5 26.958V14.25C29.3887 14.3053 29.236 14.34 29.042 14.354C28.8473 14.368 28.639 14.375 28.417 14.375C27.6943 14.375 27.0347 14.2293 26.438 13.938C25.8407 13.646 25.264 13.1807 24.708 12.542C24.264 13.0973 23.7153 13.5417 23.062 13.875C22.4093 14.2083 21.6527 14.375 20.792 14.375C20.042 14.375 19.3683 14.236 18.771 13.958C18.1737 13.6807 17.5833 13.2503 17 12.667C16.5 13.2223 15.9237 13.646 15.271 13.938C14.6183 14.2293 13.9447 14.375 13.25 14.375C12.4447 14.375 11.7153 14.236 11.062 13.958C10.4093 13.6807 9.833 13.2087 9.333 12.542C8.611 13.264 7.93066 13.75 7.292 14C6.65266 14.25 6.083 14.375 5.583 14.375C5.361 14.375 5.15966 14.368 4.979 14.354C4.79833 14.34 4.63866 14.3053 4.5 14.25V26.958C4.5 27.1247 4.54866 27.2567 4.646 27.354C4.74333 27.4513 4.86133 27.5 5 27.5Z" fill="#1C1B1F"/>
</svg>
