<svg width="28" height="21" viewBox="0 0 28 21" fill="none" xmlns="http://www.w3.org/2000/svg">
<path d="M16.6 7.834V6.4004C17.3109 6.06706 18.0664 5.81693 18.8664 5.65C19.6664 5.4836 20.4888 5.4004 21.3336 5.4004C21.8669 5.4004 22.3835 5.43933 22.8832 5.5172C23.3835 5.59506 23.8891 5.68946 24.4 5.8004V7.1668C23.9109 6.9892 23.4165 6.86146 22.9168 6.7836C22.4165 6.70573 21.8888 6.6668 21.3336 6.6668C20.4888 6.6668 19.6664 6.7668 18.8664 6.9668C18.0664 7.1668 17.3109 7.45586 16.6 7.834ZM16.6 15.134V13.6668C17.3109 13.3335 18.0664 13.0836 18.8664 12.9172C19.6664 12.7503 20.4888 12.6668 21.3336 12.6668C21.8669 12.6668 22.3835 12.7057 22.8832 12.7836C23.3835 12.8615 23.8891 12.9671 24.4 13.1004V14.434C23.9109 14.2559 23.4165 14.1279 22.9168 14.05C22.4165 13.9727 21.8888 13.934 21.3336 13.934C20.4888 13.934 19.6664 14.0393 18.8664 14.25C18.0664 14.4612 17.3109 14.7559 16.6 15.134ZM16.6 11.5004V10.034C17.3109 9.70066 18.0664 9.45053 18.8664 9.2836C19.6664 9.1172 20.4888 9.034 21.3336 9.034C21.8669 9.034 22.3835 9.07293 22.8832 9.1508C23.3835 9.22813 23.8891 9.32253 24.4 9.434V10.8004C23.9109 10.6228 23.4165 10.4951 22.9168 10.4172C22.4165 10.3393 21.8888 10.3004 21.3336 10.3004C20.4888 10.3004 19.6664 10.406 18.8664 10.6172C18.0664 10.8284 17.3109 11.1228 16.6 11.5004ZM6.4664 16.7004C7.64453 16.7004 8.78907 16.8337 9.9 17.1004C11.0109 17.3671 12.1109 17.7892 13.2 18.3668V4.734C12.2224 4.04493 11.1501 3.52253 9.9832 3.1668C8.8168 2.8116 7.64453 2.634 6.4664 2.634C5.64453 2.634 4.88347 2.7116 4.1832 2.8668C3.48347 3.02253 2.74453 3.24493 1.9664 3.534C1.85547 3.55586 1.77787 3.60013 1.7336 3.6668C1.6888 3.73346 1.6664 3.81133 1.6664 3.9004V17.134C1.6664 17.2449 1.71093 17.3281 1.8 17.3836C1.88907 17.4391 1.98907 17.4447 2.1 17.4004C2.6776 17.1561 3.34427 16.9783 4.1 16.8668C4.85573 16.7559 5.64453 16.7004 6.4664 16.7004ZM14.8664 18.3668C15.9555 17.7892 17.0445 17.3671 18.1336 17.1004C19.2221 16.8337 20.3555 16.7004 21.5336 16.7004C22.3555 16.7004 23.1499 16.7559 23.9168 16.8668C24.6832 16.9783 25.3443 17.134 25.9 17.334C26.0109 17.3783 26.1109 17.3727 26.2 17.3172C26.2891 17.2617 26.3336 17.1673 26.3336 17.034V3.9004C26.3336 3.81133 26.3112 3.73906 26.2664 3.6836C26.2221 3.62813 26.1445 3.57826 26.0336 3.534C25.3003 3.22253 24.5723 2.9948 23.8496 2.8508C23.1275 2.70626 22.3555 2.634 21.5336 2.634C20.3555 2.634 19.1941 2.8116 18.0496 3.1668C16.9056 3.52253 15.8445 4.04493 14.8664 4.734V18.3668ZM14.0336 20.834C12.9221 20.0559 11.7221 19.4503 10.4336 19.0172C9.14453 18.5836 7.82213 18.3668 6.4664 18.3668C5.7112 18.3668 4.97227 18.4503 4.2496 18.6172C3.52747 18.7836 2.81093 19.0001 2.1 19.2668C1.58907 19.4892 1.1112 19.4449 0.6664 19.134C0.222133 18.8225 0 18.3892 0 17.834V3.6668C0 3.33346 0.0832 3.02813 0.2496 2.7508C0.416533 2.47293 0.655467 2.26733 0.9664 2.134C1.83307 1.734 2.72747 1.4396 3.6496 1.2508C4.57227 1.06146 5.5112 0.966797 6.4664 0.966797C7.82213 0.966797 9.13893 1.15586 10.4168 1.534C11.6947 1.9116 12.9003 2.47826 14.0336 3.234C15.1445 2.47826 16.3389 1.9116 17.6168 1.534C18.8947 1.15586 20.2003 0.966797 21.5336 0.966797C22.4888 0.966797 23.4277 1.06146 24.3504 1.2508C25.2725 1.4396 26.1669 1.734 27.0336 2.134C27.3445 2.26733 27.5835 2.47293 27.7504 2.7508C27.9168 3.02813 28 3.33346 28 3.6668V17.834C28 18.4116 27.7611 18.8505 27.2832 19.1508C26.8053 19.4505 26.3109 19.4783 25.8 19.234C25.1109 18.9673 24.4109 18.7561 23.7 18.6004C22.9891 18.4447 22.2669 18.3668 21.5336 18.3668C20.1779 18.3668 18.8667 18.5836 17.6 19.0172C16.3333 19.4503 15.1445 20.0559 14.0336 20.834Z" fill="#002B59"/>
</svg>
