<svg width="20" height="26" viewBox="0 0 20 26" fill="none" xmlns="http://www.w3.org/2000/svg">
<path d="M5 20.6663H15V18.6663H5V20.6663ZM5 15.333H15V13.333H5V15.333ZM2.4 25.6663C1.73333 25.6663 1.16667 25.433 0.7 24.9663C0.233333 24.4997 0 23.933 0 23.2663V2.73301C0 2.06634 0.233333 1.49967 0.7 1.03301C1.16667 0.566341 1.73333 0.333008 2.4 0.333008H13L20 7.33301V23.2663C20 23.933 19.7667 24.4997 19.3 24.9663C18.8333 25.433 18.2667 25.6663 17.6 25.6663H2.4ZM12 8.33301V2.33301H2.4C2.31111 2.33301 2.22222 2.37745 2.13333 2.46634C2.04444 2.55523 2 2.64412 2 2.73301V23.2663C2 23.3552 2.04444 23.4441 2.13333 23.533C2.22222 23.6219 2.31111 23.6663 2.4 23.6663H17.6C17.6889 23.6663 17.7778 23.6219 17.8667 23.533C17.9556 23.4441 18 23.3552 18 23.2663V8.33301H12Z" fill="#002B59"/>
</svg>
