<svg width="30" height="25" viewBox="0 0 30 25" fill="none" xmlns="http://www.w3.org/2000/svg">
<path d="M3.33335 16.3999C2.64446 16.3999 2.07246 16.1719 1.61735 15.7159C1.16135 15.2608 0.93335 14.6888 0.93335 13.9999V2.6666C0.93335 1.99993 1.16135 1.43327 1.61735 0.966601C2.07246 0.499935 2.64446 0.266602 3.33335 0.266602H26.6667C27.3333 0.266602 27.9 0.499935 28.3667 0.966601C28.8333 1.43327 29.0667 1.99993 29.0667 2.6666V13.9999C29.0667 14.6888 28.8333 15.2608 28.3667 15.7159C27.9 16.1719 27.3333 16.3999 26.6667 16.3999H3.33335ZM27.0667 13.9999V2.6666C27.0667 2.55549 27.0276 2.46082 26.9493 2.3826C26.872 2.30527 26.7778 2.2666 26.6667 2.2666H3.33335C3.22224 2.2666 3.12802 2.30527 3.05068 2.3826C2.97246 2.46082 2.93335 2.55549 2.93335 2.6666V13.9999H27.0667ZM3.30002 21.1999L3.23335 19.5999L26.7667 18.3666L26.8333 19.9666L3.30002 21.1999ZM3.20002 24.4999V22.8999H26.8V24.4999H3.20002ZM12.9667 12.0333C14.5 12.0333 15.9778 11.7724 17.4 11.2506C18.8222 10.7279 20.0778 9.91105 21.1667 8.79994C21.3 9.64438 21.7333 10.2777 22.4667 10.6999C23.2 11.1222 24.0111 11.3444 24.9 11.3666V5.29993C24.0111 5.32216 23.1942 5.56082 22.4493 6.01594C21.7053 6.47194 21.2778 7.11105 21.1667 7.93327C20.0556 6.8666 18.7947 6.04971 17.384 5.4826C15.9725 4.91638 14.5 4.63327 12.9667 4.63327C11.3222 4.63327 9.73335 4.92216 8.20002 5.49994C6.66668 6.07771 5.42224 7.02216 4.46668 8.33327C5.42224 9.6666 6.66668 10.6164 8.20002 11.1826C9.73335 11.7497 11.3222 12.0333 12.9667 12.0333Z" fill="#002B59"/>
</svg>
