<svg fill="none" height="72" viewBox="0 0 72 72" width="72" xmlns="http://www.w3.org/2000/svg">
    <path
        d="M65.6416 15.688L55.5681 25.2249C56.373 26.7859 57.0072 28.4689 57.495 30.2982C60.8854 43.079 53.8364 54.6648 41.7141 57.8844C29.5918 61.104 17.7378 54.5184 14.3474 41.7375C10.9327 28.8591 17.9817 17.2734 30.104 14.0782C31.7626 13.6392 33.4211 13.3953 35.0553 13.3221L34.1529 29.225L58.3243 7.73655L57.3487 6.98043C51.0314 2.17541 43.2751 -0.117337 35.47 0.00461793C32.5919 0.0777908 29.6405 0.492437 26.7136 1.27295C7.42038 6.37066 -3.92141 25.6151 1.24947 45.2011C6.39597 64.665 25.8112 75.8849 45.1044 70.7628C64.3977 65.6651 75.8126 46.2743 70.6417 26.8103C69.5442 22.7126 67.8368 18.9808 65.6172 15.688H65.6416Z"
        fill="white" />
</svg>
